<?xml version="1.0" encoding="utf-8"?>
<!-- Generator: Adobe Illustrator 27.4.0, SVG Export Plug-In . SVG Version: 6.00 Build 0)  -->
<svg version="1.1" id="Calque_1" xmlns:svgjs="http://svgjs.com/svgjs"
	 xmlns="http://www.w3.org/2000/svg" xmlns:xlink="http://www.w3.org/1999/xlink" x="0px" y="0px" viewBox="0 0 512 381"
	 style="enable-background:new 0 0 512 381;" xml:space="preserve">
<style type="text/css">
	.st0{fill:#F2F5FB;}
	.st1{fill:#E6E8F0;}
	.st2{fill:#CCEFFD;}
	.st3{fill:#B4EEFE;}
	.st4{fill:#FFAC7B;}
	.st5{fill:#F67F58;}
	.st6{fill:#FFB951;}
	.st7{fill:#EEA840;}
	.st8{fill:#B28477;}
	.st9{fill:#99674F;}
</style>
<g>
	<path class="st0" d="M164,276.7H67.7L44.6,57.9c-0.4-3.9,2.7-7.3,6.6-7.3h129.4c3.9,0,7,3.4,6.6,7.3L164,276.7z"/>
	<path class="st1" d="M180.5,50.5h-30c3.9,0,7,3.4,6.6,7.3L134,276.7h30l23.1-218.8C187.5,54,184.5,50.5,180.5,50.5L180.5,50.5z"/>
	<path class="st2" d="M382.1,287.3H374c-37.9,0-68.6-30.7-68.6-68.6v-82.1c0-2.8,2.3-5.1,5.1-5.1l0,0h135.2c2.8,0,5.1,2.3,5.1,5.1
		l0,0v82.1C450.8,256.6,420,287.3,382.1,287.3L382.1,287.3z"/>
	<path class="st3" d="M445.6,131.5h-30c2.8,0,5.1,2.3,5.1,5.1l0,0v82.1c0,34.2-25,62.5-57.7,67.8c3.6,0.6,7.2,0.9,10.9,0.9h8.2
		c37.9,0,68.6-30.7,68.6-68.6v-82.1C450.8,133.8,448.5,131.5,445.6,131.5L445.6,131.5L445.6,131.5z"/>
	<path class="st4" d="M50.2,111l17.5,165.7H164L181.5,111H50.2z"/>
	<path class="st5" d="M151.5,111L134,276.7h30L181.5,111H151.5z"/>
	<path class="st6" d="M144.6,276.7H97.4c-3.2-17.2,1.7-34.9,13.3-48l14.6-16.6l14.2,13.6L144.6,276.7z"/>
	<path class="st7" d="M192,276.7h-54.7l-12.9-70c-1.6-8.9,3.4-17.7,11.9-20.8c18.4-6.7,38.5-6.7,56.8,0c8.5,3.1,13.5,11.9,11.9,20.8
		L192,276.7z"/>
	<path class="st6" d="M294.1,276.7h47.2c3.2-17.2-1.7-34.9-13.3-48l-14.6-16.6l-14.2,13.6L294.1,276.7z"/>
	<path class="st7" d="M246.7,276.7h54.7l12.9-70c1.6-8.9-3.4-17.7-11.9-20.8c-18.4-6.7-38.5-6.7-56.8,0
		c-8.5,3.1-13.5,11.9-11.9,20.8L246.7,276.7z"/>
	<path class="st6" d="M165.9,182.7c-2.2-12,4.5-23.8,15.9-27.9c24.6-9,51.7-9,76.3,0c11.4,4.2,18.2,16,15.9,27.9l-17.4,94h-73.5
		L165.9,182.7z"/>
	<path class="st7" d="M258.1,154.8c-17-6.2-35.2-8.2-53.2-5.7c7.9,1.1,15.7,3,23.2,5.7c11.4,4.2,18.2,16,15.9,27.9l-17.4,94h30
		l17.4-94C276.3,170.7,269.6,158.9,258.1,154.8L258.1,154.8z"/>
	<path class="st8" d="M463.3,333.3H48.7c-2.5,0-4.8-1.5-5.9-3.8L8.1,286.4c-2-4.3,1.2-9.2,5.9-9.2h484c4.7,0,7.8,4.9,5.9,9.2
		l-34.7,43.1C468.2,331.8,465.9,333.3,463.3,333.3L463.3,333.3z"/>
	<path class="st9" d="M498,277.3h-30c4.7,0,7.8,4.9,5.9,9.2l-34.7,43.1c-1.1,2.3-3.4,3.8-5.9,3.8h30c2.5,0,4.8-1.5,5.9-3.8
		l34.7-43.1C505.9,282.2,502.7,277.3,498,277.3z M142.1,364.8H108c-6.3,0-11.4-5.1-11.4-11.4v-20h57v20
		C153.5,359.7,148.4,364.8,142.1,364.8z M404,364.8h-34.1c-6.3,0-11.4-5.1-11.4-11.4v-20h57v20C415.4,359.7,410.3,364.8,404,364.8
		L404,364.8z"/>
	<path d="M374.3,55.1H329c-11.5,0-20.9,9.4-20.9,20.9s9.4,20.9,20.9,20.9h19.8c4,0,7.4,3.3,7.4,7.4v0.6c0,3.3,2.8,6.1,6.1,6.1
		c3.3,0,6.1-2.8,6.1-6.1v-0.6c0-10.8-8.7-19.5-19.5-19.5H329c-4.9,0-8.7-3.9-8.7-8.7s3.9-8.7,8.7-8.7h45.3
		c10.9,0,19.8-8.9,19.8-19.8s-8.9-19.8-19.8-19.8h-17.2c-3.3,0-6.1,2.8-6.1,6.1s2.8,6.1,6.1,6.1h17.2c4.2,0,7.7,3.4,7.7,7.7
		S378.5,55.1,374.3,55.1z"/>
	<path d="M426.4,66.4h-36c-9.1,0-16.6,7.5-16.6,16.6s7.5,16.6,16.6,16.6h15.8c3.2,0,5.9,2.6,5.9,5.9v0.5c0,2.6,2.2,4.8,4.8,4.8
		s4.8-2.2,4.8-4.8v-0.5c0-8.6-7-15.5-15.5-15.5h-15.8c-3.9,0-7-3.1-7-7s3.1-7,7-7h36c8.7,0,15.8-7.1,15.8-15.8s-7.1-15.8-15.8-15.8
		h-13.6c-2.6,0-4.8,2.2-4.8,4.8s2.2,4.8,4.8,4.8h13.6c3.3,0,6.1,2.7,6.1,6.1C432.5,63.7,429.8,66.4,426.4,66.4z"/>
	<path d="M509.8,276.2c-2.6-4-7-6.4-11.8-6.4h-59.5c12.6-13.8,19.7-31.9,19.7-51.1v-9.2c22.2-1.4,39.8-19.8,39.8-42.4v-19.7
		c0-6.5-5.3-11.7-11.7-11.7h-28.2c-0.5-6.5-5.9-11.7-12.6-11.7H310.4c-7,0-12.6,5.7-12.6,12.6v40c-5.3-1.4-10.7-2.4-16.1-2.8
		c-1.6-11.9-9.7-21.9-21-26c-24.2-8.9-50.8-9.5-75.3-2l9.2-87c0.4-4-0.9-8-3.6-10.9s-6.5-4.7-10.5-4.7h-70.4c-4.1,0-7.5,3.4-7.5,7.5
		s3.4,7.5,7.5,7.5h69.5l-4.8,45.4H56.9L52.1,58h28c4.1,0,7.5-3.4,7.5-7.5S84.2,43,80.1,43H51.2c-4,0-7.8,1.7-10.5,4.7s-4,7-3.5,10.9
		l22.3,211.1H14c-4.8,0-9.2,2.4-11.8,6.4s-2.9,9-1,13.4c0.3,0.6,0.6,1.1,1,1.6l34.2,42.5c2.5,4.4,7.1,7.2,12.2,7.2H89v12.5
		c0,10.4,8.5,18.9,18.9,18.9H142c10.4,0,18.9-8.5,18.9-18.9v-12.5H178c4.1,0,7.5-3.4,7.5-7.5s-3.4-7.5-7.5-7.5H49.3
		c-0.2-0.3-0.4-0.7-0.7-1l-32.2-40h479.2l-32.2,40c-0.3,0.3-0.5,0.6-0.7,1H208.2c-4.1,0-7.5,3.4-7.5,7.5s3.4,7.5,7.5,7.5H351v12.5
		c0,10.4,8.5,18.9,18.9,18.9H404c10.4,0,18.9-8.5,18.9-18.9v-12.5h40.4c5.1,0,9.8-2.8,12.2-7.2l34.2-42.5c0.4-0.5,0.7-1,1-1.6
		C512.7,285.2,512.4,280.2,509.8,276.2L509.8,276.2z M146,340.8v12.5c0,2.2-1.8,3.9-3.9,3.9H108c-2.2,0-3.9-1.8-3.9-3.9v-12.5H146z
		 M483.1,167.1c0,14.2-10.9,26-24.8,27.3v-43.8h24.8V167.1z M443.3,139v79.7c0,20.7-10.3,39.8-27.6,51.1h-66
		c0.9-16.8-4.8-33.4-16-46.1l-12.2-13.9l0.3-1.8c1.7-9.3-1.7-18.7-8.9-24.7V139H443.3z M310.4,269.8l7.6-41.2l4.4,5
		c8.7,9.9,13.1,23,12.2,36.1L310.4,269.8z M265.6,269.8l15-81.1c6.6,0.6,13.1,2,19.3,4.3c5.1,1.8,8.1,7.1,7.1,12.4l-11.9,64.5
		L265.6,269.8L265.6,269.8z M143.6,269.8l-11.9-64.5c-1-5.3,2-10.5,7.1-12.4c6.6-2.4,13.5-3.9,20.5-4.4l15,81.2L143.6,269.8
		L143.6,269.8z M104.1,269.8c-0.9-13.1,3.5-26.2,12.2-36.1l4.4-5l7.6,41.2h-24.2V269.8z M255.6,161.8c8,2.9,12.7,11.2,11.1,19.5
		l-16.2,87.9h-61l-16.2-87.9c-1.6-8.4,3.2-16.6,11.1-19.5C207.4,153.4,232.6,153.4,255.6,161.8z M58.5,118.5h114.7l-3.6,34.5
		c0,0.1,0,0.3,0,0.4c-6.1,5.1-10.1,12.4-11.2,20.3c-8.4,0.6-16.7,2.4-24.6,5.3c-12,4.3-19,16.7-16.7,29.2l0.3,1.8
		c-0.1,0.1-0.3,0.3-0.4,0.4l-11.8,13.5c-11.2,12.7-16.9,29.3-16,46.1H74.5L58.5,118.5z M407.9,353.3c0,2.2-1.8,3.9-3.9,3.9h-34.1
		c-2.2,0-3.9-1.8-3.9-3.9v-12.5h42L407.9,353.3L407.9,353.3z"/>
</g>
</svg>
