<?xml version="1.0" encoding="UTF-8" standalone="no"?>
<!-- Created with Inkscape (http://www.inkscape.org/) -->

<svg
   version="1.1"
   id="svg4242"
   xml:space="preserve"
   width="682.66669"
   height="682.66669"
   viewBox="0 0 682.66669 682.66669"
   xmlns="http://www.w3.org/2000/svg"
   xmlns:svg="http://www.w3.org/2000/svg"><defs
     id="defs4246"><clipPath
       clipPathUnits="userSpaceOnUse"
       id="clipPath4256"><path
         d="M 0,512 H 512 V 0 H 0 Z"
         id="path4254" /></clipPath></defs><g
     id="g4248"
     transform="matrix(1.3333333,0,0,-1.3333333,0,682.66667)"><g
       id="g4250"><g
         id="g4252"
         clip-path="url(#clipPath4256)"><g
           id="g4258"
           transform="translate(502,388.2217)"><path
             d="m 0,0 c 0,62.838 -75.073,113.778 -246,113.778 -170.927,0 -246,-50.94 -246,-113.778 0,-16.896 7.964,-32.932 22.25,-47.349 19.475,-19.652 29.987,-46.472 29.987,-74.139 v -192.949 c 0,-35.227 28.558,-63.785 63.785,-63.785 h 259.956 c 35.227,0 63.785,28.558 63.785,63.785 v 192.949 c 0,27.667 10.512,54.487 29.987,74.139 C -7.964,-32.932 0,-16.896 0,0"
             style="fill:#e2a284;fill-opacity:1;fill-rule:nonzero;stroke:none"
             id="path4260" /></g><g
           id="g4262"
           transform="translate(127.6514,50)"><path
             d="m 0,0 h 256.697 c 14.036,0 25.414,11.378 25.414,25.414 v 191.319 c 0,38.913 14.765,75.242 41.575,102.295 4.864,4.909 10.663,12.225 10.663,19.194 0,36.723 -63.698,73.778 -206,73.778 -142.303,0 -206,-37.055 -206,-73.778 0,-6.969 5.798,-14.285 10.664,-19.194 26.808,-27.053 41.573,-63.382 41.573,-102.295 V 25.414 C -25.414,11.378 -14.036,0 0,0"
             style="fill:#fff3da;fill-opacity:1;fill-rule:nonzero;stroke:none"
             id="path4264" /></g><g
           id="g4266"
           transform="translate(442.6733,283.2393)"><path
             d="m 0,0 c -7.455,41.36 -38.249,72.637 -76.365,82.71 -24.722,6.532 -47.543,18.602 -68.041,33.888 -22.433,16.729 -51.473,24.479 -81.187,19.124 -36.442,-6.569 -65.053,-31.256 -78.232,-63.106 -5.473,-13.228 -15.641,-23.856 -28.518,-30.112 -24.236,-11.774 -44.038,-32.876 -53.466,-60.798 -16.863,-49.944 5.611,-104.05 52.935,-127.268 16.291,-7.994 33.47,-11.374 50.18,-10.742 18.056,0.684 35.44,-7.068 46.944,-21.001 23.315,-28.236 60.777,-43.402 99.381,-36.444 43.898,7.911 76.425,42.115 84.306,83.461 2.491,13.069 9.254,25.003 19.128,33.921 C -6.964,-72.911 6.664,-36.976 0,0"
             style="fill:#ffffff;fill-opacity:1;fill-rule:nonzero;stroke:none"
             id="path4268" /></g><g
           id="g4270"
           transform="translate(330.0137,255.873)"><path
             d="m 0,0 c 0,40.807 -33.081,73.887 -73.887,73.887 -40.806,0 -73.886,-33.08 -73.886,-73.887 0,-40.807 33.08,-73.887 73.886,-73.887 C -33.081,-73.887 0,-40.807 0,0"
             style="fill:#ffce62;fill-opacity:1;fill-rule:nonzero;stroke:none"
             id="path4272" /></g><g
           id="g4274"
           transform="translate(62.2368,183.8613)"><path
             d="m 0,0 v -110.076 c 0,-35.228 28.558,-63.785 63.786,-63.785 h 259.955 c 35.227,0 63.785,28.557 63.785,63.785 V 82.872 c 0,27.667 10.512,54.487 29.987,74.14 14.286,14.417 22.25,30.452 22.25,47.348 0,62.838 -75.073,113.779 -246,113.779 -170.927,0 -246,-50.941 -246,-113.779 0,-16.896 7.965,-32.931 22.251,-47.348 16.925,-17.08 27.081,-39.574 29.449,-63.333"
             style="fill:none;stroke:#000000;stroke-width:20;stroke-linecap:round;stroke-linejoin:round;stroke-miterlimit:10;stroke-dasharray:none;stroke-opacity:1"
             id="path4276" /></g><g
           id="g4278"
           transform="translate(423.1167,328.373)"><path
             d="m 0,0 c 6.906,14.975 16.391,28.718 28.22,40.655 4.864,4.909 10.663,12.225 10.663,19.194 0,32.6 -50.196,65.462 -161.02,72.429 m -89.98,-0.001 c -110.809,-6.97 -161,-39.83 -161,-72.428 0,-6.969 5.799,-14.285 10.664,-19.194 14.897,-15.033 26.075,-32.93 33.068,-52.543 m 8.506,-175.984 v -65.087 c 0,-14.036 11.378,-25.414 25.414,-25.414 h 256.697 c 14.036,0 25.414,11.378 25.414,25.414 v 109.808"
             style="fill:none;stroke:#000000;stroke-width:20;stroke-linecap:round;stroke-linejoin:round;stroke-miterlimit:10;stroke-dasharray:none;stroke-opacity:1"
             id="path4280" /></g><g
           id="g4282"
           transform="translate(442.6733,283.2393)"><path
             d="m 0,0 c -7.455,41.36 -38.249,72.637 -76.365,82.71 -24.722,6.532 -47.543,18.602 -68.041,33.888 -22.433,16.729 -51.473,24.479 -81.187,19.124 -36.442,-6.569 -65.053,-31.256 -78.232,-63.106 -5.473,-13.228 -15.641,-23.856 -28.518,-30.112 -24.236,-11.774 -44.038,-32.876 -53.466,-60.798 -16.863,-49.944 5.611,-104.05 52.935,-127.268 16.291,-7.994 33.47,-11.374 50.18,-10.742 18.056,0.684 35.44,-7.068 46.944,-21.001 23.315,-28.236 60.777,-43.402 99.381,-36.444 43.898,7.911 76.425,42.115 84.306,83.461 2.491,13.069 9.254,25.003 19.128,33.921 C -6.964,-72.911 6.664,-36.976 0,0 Z"
             style="fill:none;stroke:#000000;stroke-width:20;stroke-linecap:round;stroke-linejoin:round;stroke-miterlimit:10;stroke-dasharray:none;stroke-opacity:1"
             id="path4284" /></g><g
           id="g4286"
           transform="translate(330.0137,255.873)"><path
             d="m 0,0 c 0,40.807 -33.081,73.887 -73.887,73.887 -40.806,0 -73.886,-33.08 -73.886,-73.887 0,-40.807 33.08,-73.887 73.886,-73.887 C -33.081,-73.887 0,-40.807 0,0 Z"
             style="fill:none;stroke:#000000;stroke-width:20;stroke-linecap:round;stroke-linejoin:round;stroke-miterlimit:10;stroke-dasharray:none;stroke-opacity:1"
             id="path4288" /></g><g
           id="g4290"
           transform="translate(287.0029,255.873)"><path
             d="M 0,0 C 0,17.053 -13.824,30.876 -30.876,30.876"
             style="fill:none;stroke:#000000;stroke-width:20;stroke-linecap:round;stroke-linejoin:round;stroke-miterlimit:10;stroke-dasharray:none;stroke-opacity:1"
             id="path4292" /></g><g
           id="g4294"
           transform="translate(256,461.9697)"><path
             d="M 0,0 V 0"
             style="fill:none;stroke:#000000;stroke-width:20;stroke-linecap:round;stroke-linejoin:round;stroke-miterlimit:10;stroke-dasharray:none;stroke-opacity:1"
             id="path4296" /></g></g></g></g></svg>
