<svg xmlns="http://www.w3.org/2000/svg" version="1.1" xmlns:xlink="http://www.w3.org/1999/xlink" xmlns:svgjs="http://svgjs.com/svgjs" width="512" height="512" x="0" y="0" viewBox="0 0 60 57" style="enable-background:new 0 0 512 512" xml:space="preserve" class=""><g><g id="Page-1" fill="none" fill-rule="evenodd"><g id="054---Coffee" fill-rule="nonzero"><path id="Shape" d="m49 18v4h-38v-4c.0032948-1.1032019.8967981-1.9967052 2-2h34c1.1032019.0032948 1.9967052.8967981 2 2z" fill="#ffdaa5" data-original="#ff9801" class=""></path><path id="Shape" d="m47 16h-3c1.1032019.0032948 1.9967052.8967981 2 2v4h3v-4c-.0032948-1.1032019-.8967981-1.9967052-2-2z" fill="#ff8100" data-original="#f57c00" class=""></path><path id="Shape" d="m49 22v.58c-.030458 3.5100252-1.1950525 6.9161133-3.32 9.71-1.92 2.55-4.18 6.85-5.37 13.71h-7.53c.5041925-1.982092.2097177-4.0829177-.82-5.85-.2426468-.3783144-.5241767-.7302268-.84-1.05-2.8-2.77-7.8-2.4-11.79.66-.6072505-3.2714827-2.5830128-6.1277873-5.43-7.85-1.833133-2.7714682-2.8390348-6.0076972-2.9-9.33v-.58z" fill="#e9a33b" data-original="#ff5722" class=""></path><path id="Shape" d="m46 22v.58c-.030458 3.5100252-1.1950525 6.9161133-3.32 9.71-1.92 2.55-4.18 6.85-5.37 13.71h3c1.19-6.86 3.45-11.16 5.37-13.71 2.1249475-2.7938867 3.289542-6.1999748 3.32-9.71v-.58z" fill="#d84315" data-original="#d84315"></path><path id="Shape" d="m52 47.95v.11c.0013551.594331-.267175 1.1571406-.73 1.53l-3.73 2.98c-.3459738.2778297-.7762806.4294952-1.22.43h-17.91c.28-.24.55-.49.82-.76 1.7571714-1.6965849 2.9894615-3.8626384 3.55-6.24h17.27c.5174979-.0010648 1.0141069.2040391 1.3800339.5699661s.5710309.862536.5699661 1.3800339z" fill="#ffdaa5" data-original="#ff9801" class=""></path><path id="Shape" d="m50.05 46h-3c.5174979-.0010648 1.0141069.2040391 1.3800339.5699661s.5710309.862536.5699661 1.3800339v.11c.0013551.594331-.267175 1.1571406-.73 1.53l-3.73 2.98c-.3459738.2778297-.7762806.4294952-1.22.43h3c.4437194-.0005048.8740262-.1521703 1.22-.43l3.73-2.98c.462825-.3728594.7313551-.935669.73-1.53v-.11c.0010648-.5174979-.2040391-1.0141069-.5699661-1.3800339s-.862536-.5710309-1.3800339-.5699661z" fill="#ff8100" data-original="#f57c00" class=""></path><path id="Shape" d="m32.78 46c-.5605385 2.3773616-1.7928286 4.5434151-3.55 6.24-.27.27-.54.52-.82.76-4.07 3.48-9.43 4.02-12.35 1.12-.065429-.0615728-.1256356-.128469-.18-.2-.2455197-.2625633-.4664447-.5470879-.66-.85 2.47-2.34 4.33-.56 6.8-3.02 2.51-2.5.63-4.38 3.14-6.88 2.46-2.46 4.33-.68 6.79-3.02h.01c1.0297177 1.7670823 1.3241925 3.867908.82 5.85z" fill="#6d4122" data-original="#6d4122" class=""></path><path id="Shape" d="m31.96 40.15h-.01c-2.46 2.34-4.33.56-6.79 3.02-2.51 2.5-.63 4.38-3.14 6.88-2.47 2.46-4.33.68-6.8 3.02-2.07-3.27-1.01-8.38 2.73-12.09.4333817-.4358182.8943322-.8433252 1.38-1.22 3.99-3.06 8.99-3.43 11.79-.66.3158233.3197732.5973532.6716856.84 1.05z" fill="#91562d" data-original="#91562d"></path><path id="Shape" d="m17.95 40.98c-3.74 3.71-4.8 8.82-2.73 12.09.1935553.3029121.4144803.5874367.66.85-1.143033.9286542-2.4842303 1.5821458-3.92 1.91v-.01c-.1-4-3.14-4.06-3.14-8.15 0-4.17 3.14-4.17 3.14-8.34 0-4.09-3.04-4.15-3.14-8.15.5155119-.1152538 1.04177988-.1755902 1.57-.18 1.2280027.0026093 2.4354137.3156418 3.51.91 2.8469872 1.7222127 4.8227495 4.5785173 5.43 7.85-.4856678.3766748-.9466183.7841818-1.38 1.22z" fill="#783e22" data-original="#783e22" class=""></path><path id="Shape" d="m8.82 47.67c0 4.09 3.04 4.15 3.14 8.15v.01c-5.89 1.25-10.97-4.75-10.96-12.33-.01-6.18 3.38-11.33 7.82-12.32.1 4 3.14 4.06 3.14 8.15 0 4.17-3.14 4.17-3.14 8.34z" fill="#a0522d" data-original="#a0522d" class=""></path><g fill="#000"><path id="Shape" d="m10 18v4.58c.0056295 1.6205665.2450976 3.2318394.711 4.784.1568489.5296411.7133589.8318489 1.243.675s.8318489-.7133589.675-1.243c-.3676065-1.2348729-.5736553-2.5121733-.613-3.8h4.984c.5522847 0 1-.4477153 1-1s-.4477153-1-1-1h-5v-2.996c0-.5522847.4477153-1 1-1h34c.5522847 0 1 .4477153 1 1v3h-25c-.5522847 0-1 .4477153-1 1s.4477153 1 1 1h24.982c-.111421 3.1466281-1.1943354 6.1815831-3.1 8.688-1.768 2.348-4.1 6.544-5.4 13.312h-2.642c-.5522847 0-1 .4477153-1 1s.4477153 1 1 1h13.21c.524442.0005512.9494488.425558.95.95v.11c.0014865.2903863-.1286855.5658067-.354.749l-3.729 2.98c-.1703708.136185-.381889.2105689-.6.211h-12.477c-.5522847 0-1 .4477153-1 1s.4477153 1 1 1h12.48c.670172-.0017662 1.3200478-.230139 1.844-.648l3.736-2.983c.6987158-.5623441 1.1035387-1.4121041 1.1-2.309v-.11c-.0016536-1.6285546-1.3214454-2.9483464-2.95-2.95h-8.525c.982-2.764 3.158-6 7.975-6 8.643 0 10.288-8.617 10.445-9.59.1842202-1.0982147-.124641-2.221821-.8443241-3.0715673s-1.7771178-1.3393568-2.8906759-1.3384327h-6.4c.1228932-.8008811.1863997-1.6097529.19-2.42v-4.58c0-1.6568542-1.3431458-3-3-3h-34c-1.6568542 0-3 1.3431458-3 3zm46.21 9c.5294089-.0007473 1.0318987.2332841 1.372.639.3375916.3985754.4808247.9264498.391 1.441-.214 1.32-1.63 7.92-8.473 7.92-2.2889956-.0650477-4.5277243.6784808-6.323 2.1.8012832-2.2176395 1.9141079-4.309952 3.305-6.214 1.3234762-1.7653662 2.3075019-3.7612226 2.902-5.886z" fill="#000000" data-original="#000000" class=""></path><path id="Shape" d="m31.824 38.391c-3.513-3.489-10.057-2.644-14.583 1.884-2.4761654 2.3352018-3.9356856 5.5498093-4.064 8.951-.0987854 2.0862627.6872224 4.1173785 2.1646568 5.5936706 1.4774344 1.476292 3.5091575 2.2607285 5.5953432 2.1603294 3.411886-.1186705 6.6420148-1.5672038 9-4.036 2.4760926-2.3347419 3.9353279-5.5491539 4.063-8.95.0636824-2.0853338-.7215562-4.1072509-2.176-5.603zm-13.171 3.3c1.9793785-2.0957729 4.695283-3.3409657 7.575-3.473 1.5512304-.0511655 3.0582519.5215315 4.184 1.59.053.053.09.119.141.175-.6406833.3680264-1.3568178.5851923-2.094.635-3.125859.2442445-5.610417 2.7245627-5.86 5.85-.1226573 2.2452442-1.9184674 4.0367416-4.164 4.154-1.0116089.0843338-1.9908782.3971939-2.864.915-.2697618-.7391934-.4032544-1.5211756-.394-2.308.1432755-2.866894 1.3886439-5.5675805 3.476-7.538zm9.872 9.835c-3.751 3.752-9.026 4.6-11.759 1.885-.053-.054-.09-.12-.141-.176.6407543-.3677089 1.3568915-.5845336 2.094-.634 3.1262489-.2437772 5.6113504-2.7242146 5.861-5.85.1240408-2.2433493 1.9183303-4.0328965 4.162-4.151 1.011459-.0850872 1.9905635-.3978946 2.864-.915.2689689.7387105.4024405 1.5198917.394 2.306-.1430559 2.8658726-1.3881127 5.5655858-3.475 7.535z" fill="#000000" data-original="#000000" class=""></path><path id="Shape" d="m10.393 57c.6061675.0030523 1.2105037-.0667821 1.8-.208.4591753-.1108204.7781838-.5278249.765-1-.0301659-1.6866772-.6573114-3.3080433-1.77-4.576-.8930664-.9653043-1.38072148-2.2370743-1.362-3.552-.01283129-1.3178226.4746141-2.5914703 1.364-3.564 2.3535365-2.7384686 2.3535365-6.7855314 0-9.524-.641573-.7268243-1.0848485-1.6068311-1.287-2.555.166-.014.3283333-.021.487-.021 2.66.009 5.1 1.687 6.7 4.6.1670712.3216365.4950978.5276965.8573743.5385861.3622764.0108897.7020875-.1750958.8881758-.4861167.1860882-.3110208.1893211-.698386.0084499-1.0124694-1.931-3.524-5.09-5.633-8.453-5.644-.60218905.0009386-1.20245386.0680073-1.79.2-4.993 1.124-8.611 6.717-8.601 13.304-.01 7.433 4.651 13.489 10.393 13.5zm-2.432-24.5c.26912744 1.210585.83200847 2.336347 1.639 3.278.8930664.9653043 1.3807215 2.2370743 1.362 3.552.013052 1.3209456-.4771278 2.5973438-1.371 3.57-2.35183892 2.7390976-2.35183892 6.7849024 0 9.524.6429412.7274428 1.0863591 1.6091107 1.287 2.559-.156.013-.315.019-.479.019-4.642-.011-8.407-5.169-8.399-11.502-.008-5.059 2.489-9.547 5.961-11z" fill="#000000" data-original="#000000" class=""></path><path id="Shape" d="m23.324 9.429c-.8162976.6051853-1.3054306 1.5550048-1.324 2.571 0 .5522847.4477153 1 1 1s1-.4477153 1-1c0-.459.2-.656.676-1.1.8153895-.6050627 1.3043598-1.55382748 1.324-2.569-.0185694-1.01599519-.5077024-1.96581467-1.324-2.571-.476-.441-.676-.638-.676-1.097s.2-.654.676-1.1c.8145736-.60307422 1.3035747-1.54968295 1.324-2.563 0-.55228475-.4477153-1-1-1s-1 .44771525-1 1c0 .457-.2.653-.675 1.094-.8168414.60394119-1.306491 1.55330701-1.325 2.569.0182651 1.01607186.5074633 1.96601781 1.324 2.571.481.441.676.638.676 1.1s-.195.654-.676 1.095z" fill="#000000" data-original="#000000" class=""></path><path id="Shape" d="m29.324 9.429c-.8162976.6051853-1.3054306 1.5550048-1.324 2.571 0 .5522847.4477153 1 1 1s1-.4477153 1-1c0-.459.2-.656.676-1.1.8153895-.6050627 1.3043598-1.55382748 1.324-2.569-.0185694-1.01599519-.5077024-1.96581467-1.324-2.571-.476-.441-.676-.638-.676-1.097s.2-.654.676-1.1c.8145736-.60307422 1.3035747-1.54968295 1.324-2.563 0-.55228475-.4477153-1-1-1s-1 .44771525-1 1c0 .457-.2.653-.675 1.094-.8168414.60394119-1.306491 1.55330701-1.325 2.569.0182651 1.01607186.5074633 1.96601781 1.324 2.571.481.441.676.638.676 1.1s-.195.654-.676 1.095z" fill="#000000" data-original="#000000" class=""></path><path id="Shape" d="m35.324 9.429c-.8162976.6051853-1.3054306 1.5550048-1.324 2.571 0 .5522847.4477153 1 1 1s1-.4477153 1-1c0-.459.2-.656.676-1.1.8153895-.6050627 1.3043598-1.55382748 1.324-2.569-.0185694-1.01599519-.5077024-1.96581467-1.324-2.571-.476-.441-.676-.638-.676-1.097s.2-.654.676-1.1c.8145736-.60307422 1.3035747-1.54968295 1.324-2.563 0-.55228475-.4477153-1-1-1s-1 .44771525-1 1c0 .457-.2.653-.675 1.094-.8168414.60394119-1.306491 1.55330701-1.325 2.569.0182651 1.01607186.5074633 1.96601781 1.324 2.571.481.441.676.638.676 1.1s-.195.654-.676 1.095z" fill="#000000" data-original="#000000" class=""></path></g></g></g></g></svg>