<svg height="512" viewBox="0 0 128 128" width="512" xmlns="http://www.w3.org/2000/svg"><g><g><path d="m118.721 15.678a9.49 9.49 0 0 1 0 13.419 9.532 9.532 0 0 1 -2.28 1.678c-16.871 8.954-40.636 25.593-50.354 35.312s-26.358 33.483-35.312 50.354a9.532 9.532 0 0 1 -1.678 2.28 9.49 9.49 0 0 1 -13.419 0 20.547 20.547 0 0 1 -6-15.041c.372-15.271 4.027-46.286 25.871-68.13s52.859-25.5 68.13-25.871a20.547 20.547 0 0 1 15.042 5.999z" fill="#f4a86c"/><path d="m87.037 11.3 11.352 28.574a7.616 7.616 0 0 1 -2.974 9.208 166.166 166.166 0 0 0 -25.955 20.378 166.166 166.166 0 0 0 -20.378 25.955 7.616 7.616 0 0 1 -9.208 2.974l-28.574-11.352a7.615 7.615 0 0 1 -4.523-9.107c4.508-16.322 13.023-32.966 25.606-45.547s29.225-21.098 45.547-25.606a7.615 7.615 0 0 1 9.107 4.523z" fill="#d78759"/><path d="m57.194 15.4 22.969 41.305a7.563 7.563 0 0 1 -1.6 9.378c-2.251 1.962-4.425 3.977-6.463 6.017s-4.054 4.214-6.015 6.469a7.566 7.566 0 0 1 -9.38 1.6l-41.313-22.979a7.609 7.609 0 0 1 -2.9-10.437 98.564 98.564 0 0 1 34.27-34.261 7.607 7.607 0 0 1 10.432 2.908z" fill="#f4a86c"/></g><g fill="#041925"><path d="m119.957 14.442a22.459 22.459 0 0 0 -16.317-6.512 126.062 126.062 0 0 0 -15.656 1.363 9.344 9.344 0 0 0 -10.52-4.2 114.929 114.929 0 0 0 -20.085 7.617 9.336 9.336 0 0 0 -11.487-1.737 98.641 98.641 0 0 0 -19.644 15.276 1.75 1.75 0 0 0 2.475 2.475 94.933 94.933 0 0 1 18.909-14.713 5.857 5.857 0 0 1 8.033 2.236l22.969 41.309a5.83 5.83 0 0 1 -1.215 7.207c-2.34 2.036-4.546 4.088-6.558 6.1s-4.058 4.213-6.1 6.558a5.836 5.836 0 0 1 -7.209 1.215l-41.31-22.976a5.857 5.857 0 0 1 -2.234-8.036c.962-1.675 2.054-3.4 3.245-5.135a1.75 1.75 0 0 0 -2.885-1.982c-1.244 1.808-2.387 3.617-3.395 5.375a9.337 9.337 0 0 0 1.74 11.5 114.59 114.59 0 0 0 -7.619 20.08 9.347 9.347 0 0 0 4.2 10.521 126.114 126.114 0 0 0 -1.363 15.7l-.01.52a22.133 22.133 0 0 0 6.519 15.754 11.237 11.237 0 0 0 15.9 0 11.466 11.466 0 0 0 1.989-2.7c1.711-3.227 3.742-6.779 6.038-10.555a1.75 1.75 0 1 0 -2.99-1.818c-2.331 3.835-4.4 7.446-6.136 10.726a7.943 7.943 0 0 1 -1.376 1.869 7.736 7.736 0 0 1 -10.945 0 18.655 18.655 0 0 1 -5.5-13.282l.01-.48a122.139 122.139 0 0 1 1.19-14.273l26.607 10.57a9.24 9.24 0 0 0 3.407.649 9.448 9.448 0 0 0 7.916-4.303c3.006-4.648 6.231-9.183 9.585-13.506.089 0 .179.017.268.017a9.272 9.272 0 0 0 7-3.154c1.988-2.283 3.984-4.43 5.933-6.38s4.1-3.951 6.38-5.934a9.261 9.261 0 0 0 3.143-7.272c4.322-3.352 8.854-6.576 13.5-9.582a9.433 9.433 0 0 0 4.285-8.391c5.925-3.807 11.653-7.2 16.622-9.836a11.459 11.459 0 0 0 2.689-1.985 11.232 11.232 0 0 0 0-15.895zm-72.346 80.017a5.9 5.9 0 0 1 -7.094 2.3l-28.569-11.344a5.861 5.861 0 0 1 -3.481-7.015 111.152 111.152 0 0 1 7.185-19.059l40.2 22.356c.183.1.374.178.561.266-3.069 4.021-6.029 8.209-8.802 12.496zm69.871-66.6a7.921 7.921 0 0 1 -1.862 1.372c-4.764 2.528-10.214 5.738-15.863 9.337l-4.157-10.468a1.75 1.75 0 1 0 -3.252 1.293l4.418 11.122a5.9 5.9 0 0 1 -2.3 7.1c-4.285 2.772-8.469 5.729-12.491 8.8-.088-.186-.176-.371-.277-.553l-22.362-40.214a111.591 111.591 0 0 1 19.064-7.181 5.863 5.863 0 0 1 7.017 3.479l3.926 9.883a1.75 1.75 0 0 0 1.627 1.1 1.727 1.727 0 0 0 .645-.124 1.75 1.75 0 0 0 .98-2.273l-3.148-7.912a122.356 122.356 0 0 1 14.276-1.191 19.036 19.036 0 0 1 13.761 5.49 7.732 7.732 0 0 1 0 10.943z"/><path d="m18.985 37.129a1.748 1.748 0 0 0 2.46-.269c.944-1.174 1.928-2.346 2.924-3.482a1.75 1.75 0 1 0 -2.631-2.309c-1.03 1.174-2.047 2.386-3.021 3.6a1.748 1.748 0 0 0 .268 2.46z"/><path d="m59.351 33.369a1.727 1.727 0 0 0 .848-.221 1.748 1.748 0 0 0 .679-2.379l-2.885-5.189a1.75 1.75 0 1 0 -3.058 1.7l2.884 5.189a1.75 1.75 0 0 0 1.532.9z"/></g></g></svg>