<?xml version="1.0" encoding="UTF-8" standalone="no"?>
<!-- Created with Inkscape (http://www.inkscape.org/) -->

<svg
   version="1.1"
   id="svg291"
   xml:space="preserve"
   width="682.66669"
   height="682.66669"
   viewBox="0 0 682.66669 682.66669"
   xmlns="http://www.w3.org/2000/svg"
   xmlns:svg="http://www.w3.org/2000/svg"><defs
     id="defs295"><clipPath
       clipPathUnits="userSpaceOnUse"
       id="clipPath305"><path
         d="M 0,512 H 512 V 0 H 0 Z"
         id="path303" /></clipPath></defs><g
     id="g297"
     transform="matrix(1.3333333,0,0,-1.3333333,0,682.66667)"><g
       id="g299"><g
         id="g301"
         clip-path="url(#clipPath305)"><g
           id="g307"
           transform="translate(436.0767,207.6118)"><path
             d="m 0,0 -43.669,-167.227 c -4.674,-17.898 -20.841,-30.385 -39.339,-30.385 h -194.137 c -18.499,0 -34.665,12.487 -39.339,30.385 L -360.154,0 -180.077,22.383 Z"
             style="fill:#d29976;fill-opacity:1;fill-rule:nonzero;stroke:none"
             id="path309" /></g><g
           id="g311"
           transform="translate(432.6621,300.9995)"><path
             d="m 0,0 c -11.817,86.954 -86.348,147.895 -176.543,147.895 -90.145,0 -164.643,-60.865 -176.523,-147.747 -16.692,-9.432 -27.968,-27.327 -27.968,-47.867 0,-30.351 24.604,-54.955 54.955,-54.955 22.047,0 41.051,12.988 49.806,31.725 8.754,-18.737 27.759,-31.725 49.805,-31.725 22.047,0 41.051,12.988 49.806,31.725 8.755,-18.737 27.759,-31.725 49.806,-31.725 22.046,0 41.05,12.988 49.805,31.725 8.755,-18.737 27.759,-31.725 49.805,-31.725 30.351,0 54.956,24.604 54.956,54.955 C 27.71,-27.286 16.549,-9.47 0,0"
             style="fill:#ffcb7c;fill-opacity:1;fill-rule:nonzero;stroke:none"
             id="path313" /></g><g
           id="g315"
           transform="translate(214.521,444.4238)"><path
             d="m 0,0 c -70.641,-15.529 -124.932,-70.2 -134.925,-143.276 -16.692,-9.432 -27.968,-27.328 -27.968,-47.867 0,-30.351 24.604,-54.956 54.955,-54.956 22.047,0 41.051,12.989 49.806,31.725 8.755,-18.736 27.759,-31.725 49.805,-31.725 22.047,0 41.051,12.989 49.806,31.725 8.755,-18.736 27.759,-31.725 49.806,-31.725 22.046,0 41.05,12.989 49.805,31.725 8.755,-18.736 27.759,-31.725 49.806,-31.725 30.351,0 54.955,24.605 54.955,54.956 0,20.433 -11.161,38.248 -27.71,47.719 C 208.104,-69.569 152.824,-14.479 81.13,0.441"
             style="fill:none;stroke:#000000;stroke-width:20;stroke-linecap:round;stroke-linejoin:round;stroke-miterlimit:10;stroke-dasharray:none;stroke-opacity:1"
             id="path317" /></g><g
           id="g319"
           transform="translate(436.0767,207.6118)"><path
             d="m 0,0 -43.669,-167.227 c -4.674,-17.898 -20.841,-30.385 -39.339,-30.385 h -194.137 c -18.499,0 -34.665,12.487 -39.339,30.385 L -360.154,0"
             style="fill:none;stroke:#000000;stroke-width:20;stroke-linecap:round;stroke-linejoin:round;stroke-miterlimit:10;stroke-dasharray:none;stroke-opacity:1"
             id="path321" /></g><g
           id="g323"
           transform="translate(357.0859,214.4043)"><path
             d="m 0,0 -37.337,-204.404 m -127.497,0 -37.338,204.405"
             style="fill:none;stroke:#000000;stroke-width:20;stroke-linecap:round;stroke-linejoin:round;stroke-miterlimit:10;stroke-dasharray:none;stroke-opacity:1"
             id="path325" /></g><g
           id="g327"
           transform="translate(256,210.1357)"><path
             d="M 0,0 V -110.136"
             style="fill:none;stroke:#000000;stroke-width:20;stroke-linecap:round;stroke-linejoin:round;stroke-miterlimit:10;stroke-dasharray:none;stroke-opacity:1"
             id="path329" /></g><g
           id="g331"
           transform="translate(175.0859,359.7163)"><path
             d="M 0,0 -9.121,-9.121"
             style="fill:none;stroke:#000000;stroke-width:20;stroke-linecap:round;stroke-linejoin:round;stroke-miterlimit:10;stroke-dasharray:none;stroke-opacity:1"
             id="path333" /></g><g
           id="g335"
           transform="translate(260.5605,359.7163)"><path
             d="M 0,0 -9.121,-9.121"
             style="fill:none;stroke:#000000;stroke-width:20;stroke-linecap:round;stroke-linejoin:round;stroke-miterlimit:10;stroke-dasharray:none;stroke-opacity:1"
             id="path337" /></g><g
           id="g339"
           transform="translate(346.0347,359.7163)"><path
             d="M 0,0 -9.121,-9.121"
             style="fill:none;stroke:#000000;stroke-width:20;stroke-linecap:round;stroke-linejoin:round;stroke-miterlimit:10;stroke-dasharray:none;stroke-opacity:1"
             id="path341" /></g><g
           id="g343"
           transform="translate(297.5093,460.5063)"><path
             d="m 0,0 c 0,-22.916 -18.578,-41.494 -41.494,-41.494 -22.916,0 -41.493,18.578 -41.493,41.494 0,22.917 18.577,41.494 41.493,41.494 C -18.578,41.494 0,22.917 0,0"
             style="fill:#f5737f;fill-opacity:1;fill-rule:nonzero;stroke:none"
             id="path345" /></g><g
           id="g347"
           transform="translate(297.5093,460.5063)"><path
             d="m 0,0 c 0,-22.916 -18.578,-41.494 -41.494,-41.494 -22.916,0 -41.493,18.578 -41.493,41.494 0,22.917 18.577,41.494 41.493,41.494 C -18.578,41.494 0,22.917 0,0 Z"
             style="fill:none;stroke:#000000;stroke-width:20;stroke-linecap:round;stroke-linejoin:round;stroke-miterlimit:10;stroke-dasharray:none;stroke-opacity:1"
             id="path349" /></g><g
           id="g351"
           transform="translate(256,55)"><path
             d="M 0,0 H 0.127"
             style="fill:none;stroke:#000000;stroke-width:20;stroke-linecap:round;stroke-linejoin:round;stroke-miterlimit:10;stroke-dasharray:none;stroke-opacity:1"
             id="path353" /></g></g></g></g></svg>
