<svg xmlns="http://www.w3.org/2000/svg" version="1.1" xmlns:xlink="http://www.w3.org/1999/xlink" xmlns:svgjs="http://svgjs.com/svgjs" width="512" height="512" x="0" y="0" viewBox="0 0 100 100" style="enable-background:new 0 0 512 512" xml:space="preserve" class=""><g><path fill="#ffe1b8" d="M98.805 28.558v49.84c0 5.5-4.5 10-10 10h-76.77c-5.5 0-10-4.5-10-10v-49.84c0-5.5 4.5-10 10-10h76.77c5.5 0 10 4.5 10 10z" data-original="#e2e2e2" class=""></path><g fill="#bebebe"><rect width="38.19" height="28.05" x="9.485" y="51.988" rx="5" fill="#ffc16c" data-original="#bebebe" class=""></rect><rect width="38.19" height="28.05" x="53.625" y="51.988" rx="5" fill="#ffc16c" data-original="#bebebe" class=""></rect><rect width="22.73" height="19.41" x="68.915" y="27.358" rx="5" fill="#ffc16c" data-original="#bebebe" class=""></rect><rect width="22.74" height="19.41" x="38.865" y="27.358" rx="5" fill="#ffc16c" data-original="#bebebe" class=""></rect><rect width="22.74" height="19.41" x="9.765" y="27.358" rx="5" fill="#ffc16c" data-original="#bebebe" class=""></rect></g><path d="M43.564 46.962h12.738c3.584 0 6.5-2.916 6.5-6.5v-9.416c0-3.584-2.916-6.5-6.5-6.5H43.564a6.508 6.508 0 0 0-6.5 6.5v9.416c0 3.584 2.916 6.5 6.5 6.5zm-3.5-15.916c0-1.93 1.57-3.5 3.5-3.5h12.738c1.93 0 3.5 1.57 3.5 3.5v9.416c0 1.93-1.57 3.5-3.5 3.5H43.564c-1.93 0-3.5-1.57-3.5-3.5z" fill="#000000" data-original="#000000" class=""></path><path fill="#fff4c5" d="M62.623 56.369c-.224.595-.375 1.232-.746 1.749-.674.94-1.907 1.276-2.795 2.017-.952.795-1.464 2.086-1.316 3.317s.894 2.321 1.087 3.546c.277 1.753-.61 3.505-.502 5.276.136 2.23 1.877 4.121 3.921 5.022s4.35.98 6.583.899 4.483-.306 6.69.04c1.695.266 3.431.864 5.083.401 2.43-.681 3.687-3.37 4.164-5.848s.526-5.138 1.85-7.286c.579-.939 1.389-1.752 1.758-2.792.583-1.642-.095-3.529-1.288-4.8s-2.818-2.037-4.436-2.686c-2.574-1.034-5.23-1.848-7.882-2.661-4.505-1.381-10.197-1.449-12.171 3.807z" data-original="#fff4c5" class=""></path><path fill="#ffffff" d="M37.936 59.889c-.454 0-.883.096-1.293.235.076-.375.118-.763.118-1.161 0-3.029-2.309-5.485-5.157-5.485-2.131 0-3.959 1.375-4.745 3.335-1.048-.821-2.34-1.313-3.742-1.313-3.492 0-6.323 3.011-6.323 6.725a7.03 7.03 0 0 0 .641 2.936 5.651 5.651 0 0 0-1.434 3.789c0 3.029 2.309 5.485 5.157 5.485 1.717 0 3.234-.896 4.171-2.269 1.21 1.091 2.774 1.751 4.485 1.751 3.141 0 5.792-2.218 6.651-5.261.46.181.951.294 1.47.294 2.353 0 4.26-2.028 4.26-4.531s-1.907-4.531-4.26-4.531z" data-original="#ffffff" class=""></path><circle cx="20.834" cy="37.714" r="5.267" fill="#ff9797" data-original="#ff9797"></circle><circle cx="14.732" cy="29.357" r="5.267" fill="#ff9797" data-original="#ff9797"></circle><circle cx="23.833" cy="29.357" r="5.267" fill="#ffacac" data-original="#ffacac" class=""></circle><path fill="#ffe08a" d="m68.01 35.826 10.4-9.39 5.36 5.936-10.4 9.39z" data-original="#ffe08a" class=""></path><path fill="#ffe6a1" d="M78.544 23.295h8v18.043h-8z" data-original="#ffe6a1" class=""></path><path fill="#f3a173" d="m55.46 29.55-9.34 5.91c-2.04 1.29-4.74.68-6.03-1.36s-.69-4.74 1.35-6.03l1.16-.74 2.54-1.6 1.97-1.25 2.53-1.6 1.14-.72c4.98-2.94 9.47 4.15 4.68 7.39z" data-original="#f3a173"></path><path fill="#e87136" d="M51.74 29.01c-.24.15-.52.23-.8.23-.49 0-.98-.25-1.27-.7l-2.56-4.06 2.53-1.6 2.57 4.06c.44.7.23 1.62-.47 2.07zM47.54 32.19a1.5 1.5 0 0 1-2.07-.44l-2.87-4.42 2.54-1.6 2.85 4.38c.45.7.25 1.63-.45 2.08z" data-original="#e87136"></path><path fill="#2b9388" d="M66.548 66.318c-.393 0-.784-.153-1.078-.457l-2.618-2.707a1.5 1.5 0 1 1 2.156-2.086l2.618 2.707a1.5 1.5 0 0 1-1.078 2.543zM82.003 64.232a1.505 1.505 0 0 1-1.448-1.896l.739-2.707a1.502 1.502 0 0 1 2.895.79l-.739 2.707a1.501 1.501 0 0 1-1.446 1.105z" data-original="#2b9388"></path><path fill="#f29764" d="M74.34 66.428c-.983 0-1.888-.351-2.533-1.064-1.415-1.568-.96-4.207 1.034-6.006 1.994-1.801 4.665-1.984 6.079-.417.735.814.992 1.976.704 3.188-.245 1.026-.862 2.027-1.737 2.818-1.086.98-2.372 1.481-3.547 1.481zm2.062-5.549c-.35 0-.949.163-1.551.705-.858.775-.944 1.627-.817 1.769.126.14.984.142 1.842-.633.423-.382.726-.851.829-1.287.064-.27.027-.439-.012-.482-.038-.042-.142-.072-.292-.072zM66.08 74.237a5.937 5.937 0 0 1-2.328-.497c-2.468-1.062-3.748-3.412-2.914-5.352.433-1.007 1.381-1.726 2.603-1.969 1.035-.208 2.202-.063 3.286.403 1.084.465 1.99 1.214 2.554 2.107.663 1.053.795 2.236.361 3.244-.568 1.323-1.954 2.064-3.561 2.064zm-1.144-3.253c1.065.457 1.874.18 1.948.005.022-.053.004-.226-.145-.46-.238-.378-.676-.725-1.199-.95-.524-.226-1.078-.305-1.516-.217-.272.054-.409.158-.432.211-.076.176.28.955 1.343 1.412z" data-original="#f29764" class=""></path><path fill="#ffffff" d="M78.727 72.946a1.49 1.49 0 0 1-.745-.199l-3.364-1.93a1.5 1.5 0 1 1 1.492-2.602l3.364 1.93a1.5 1.5 0 0 1-.747 2.801zM67.653 58.852a1.5 1.5 0 0 1-.368-2.955l2.646-.671a1.501 1.501 0 0 1 .738 2.908l-2.646.671a1.524 1.524 0 0 1-.37.046z" data-original="#ffffff" class=""></path><path d="M88.552 15.747H11.68c-6.312 0-11.448 5.159-11.448 11.5V77.09c0 6.341 5.136 11.5 11.448 11.5h76.872c6.312 0 11.448-5.159 11.448-11.5V27.247c0-6.341-5.136-11.5-11.448-11.5zm8.461 61.343c0 4.687-3.796 8.5-8.461 8.5H11.68c-4.665 0-8.461-3.813-8.461-8.5V27.247c0-4.687 3.796-8.5 8.461-8.5h76.872c4.665 0 8.461 3.813 8.461 8.5z" fill="#000000" data-original="#000000" class=""></path><path d="M42.371 49.185H14.179a6.508 6.508 0 0 0-6.5 6.5v18.046c0 3.584 2.916 6.5 6.5 6.5h28.192c3.584 0 6.5-2.916 6.5-6.5V55.685c0-3.584-2.916-6.5-6.5-6.5zm-6.718 12.066c.679.676 1.535.193 2.283.138 3.632.098 3.641 5.962 0 6.062-.684.012-1.448-.555-2.137-.138a1.498 1.498 0 0 0-.776.936c-.99 3.909-5.769 5.531-8.688 2.803-.641-.606-1.762-.471-2.243.268-2.07 3.12-6.664 1.328-6.59-2.37 0-1.044.372-2.034 1.049-2.786a1.502 1.502 0 0 0 .249-1.627c-1.61-3.231.772-7.635 4.317-7.537 1.013 0 1.987.344 2.817.994.747.618 1.98.286 2.317-.623 1.628-3.961 7.002-2.644 7.009 1.591-.032.786-.348 1.708.392 2.288zM45.871 73.73c0 1.93-1.57 3.5-3.5 3.5H14.179c-1.93 0-3.5-1.57-3.5-3.5V55.684c0-1.93 1.57-3.5 3.5-3.5h15.827a6.617 6.617 0 0 0-3.691 2.536c-6.29-3.019-12.862 3.694-10.585 10.194-4.38 6.585 3.64 14.68 9.817 9.281 4.134 2.673 9.879.719 11.859-3.773 7.794.434 8.547-11.304.834-12.025-.232-3.028-2.315-5.509-5.056-6.212h9.187c1.93 0 3.5 1.57 3.5 3.5v18.046zM86.509 49.185H58.317a6.508 6.508 0 0 0-6.5 6.5v18.046c0 3.584 2.916 6.5 6.5 6.5h28.192c3.584 0 6.5-2.916 6.5-6.5V55.685c0-3.584-2.916-6.5-6.5-6.5zm0 3c1.93 0 3.5 1.57 3.5 3.5v4.778c-.942-5.283-7.08-6.767-11.402-8.278zM58.317 77.231c-1.93 0-3.5-1.57-3.5-3.5V55.685c0-1.93 1.57-3.5 3.5-3.5h5.492c-1.592 1.127-2.43 3.227-3.15 5.058-.567.681-1.778 1.051-2.537 1.741a5.287 5.287 0 0 0-1.845 4.646c.14 1.343.859 2.408 1.094 3.602.183 1.626-.67 3.347-.518 5.133.111 1.817 1.073 3.558 2.572 4.865h-1.108zm21.905-.04c-.083.023-.174.024-.26.04h-1.539c-2.718-.588-5.531-.843-8.295-.595-3.672.276-9.536.23-10.281-4.453-.034-1.77.82-3.483.486-5.418-.264-1.902-2.087-3.909-.289-5.479.998-.753 2.209-1.104 3.051-2.293.514-.72.67-1.382.933-2.096 1.845-4.91 7.837-3.663 10.327-2.9 3.507 1.36 13.825 3.1 12.632 8.211-.308.826-1.14 1.693-1.621 2.507-2.568 3.569-.696 10.592-5.144 12.477zm9.787-3.46c0 1.93-1.57 3.5-3.5 3.5h-1.85c2.183-2.916 1.495-7.874 3.26-10.943.771-1.185 1.828-2.276 2.09-3.813v11.257zM14.465 46.962h12.738c3.584 0 6.5-2.916 6.5-6.5v-9.416c0-3.043-2.105-5.597-4.933-6.301-2.285-2.661-6.987-2.862-9.489-.381-4.53-4.225-12.097-.345-11.257 5.847-.116-.286-.039 10.097-.06 10.251 0 3.584 2.916 6.5 6.5 6.5zM30.557 30.1c.287.201.094 9.87.146 10.362 0 1.93-1.57 3.5-3.5 3.5h-3.775c3.257-1.254 5.105-5.377 3.704-8.703a6.777 6.777 0 0 0 3.424-5.159zm-6.724-4.509c4.978.158 4.976 7.376 0 7.534-4.979-.158-4.978-7.376 0-7.534zm0 10.534c.132 0 .262-.012.392-.02 1.23 2.394-.69 5.443-3.391 5.377-3.143.069-4.955-3.864-2.864-6.184a6.746 6.746 0 0 0 1.312-.946 6.73 6.73 0 0 0 4.551 1.773zm-9.102-10.534c1.123 0 2.121.504 2.812 1.285-.631 1.521-.631 3.442 0 4.963-2.195 2.598-6.619.95-6.578-2.482a3.77 3.77 0 0 1 3.767-3.767zm-.462 10.51c-.858 3.206 1.014 6.693 3.97 7.861h-3.775c-1.93 0-3.5-1.57-3.5-3.5v-5.487a6.712 6.712 0 0 0 3.305 1.125zM67.105 37.035v3.427c0 3.584 2.916 6.5 6.5 6.5h12.738c3.584 0 6.5-2.916 6.5-6.5v-9.416c0-2.995-2.039-5.516-4.8-6.267v-1.484a1.5 1.5 0 0 0-1.5-1.5h-8a1.5 1.5 0 0 0-1.5 1.5v1.25h-3.438a6.508 6.508 0 0 0-6.5 6.5v3.587c-.782.596-.73 1.786 0 2.402zm12.938-12.239h5v15.043h-5zm-1.5 18.043h8a1.5 1.5 0 0 0 1.5-1.5V28.006c1.068.6 1.8 1.73 1.8 3.04v9.416c0 1.93-1.57 3.5-3.5 3.5H73.605c-1.968.003-3.557-1.64-3.5-3.605l2.172 2.405a1.5 1.5 0 0 0 2.118.108l2.648-2.391v.859a1.5 1.5 0 0 0 1.5 1.5zm-8.396-6.911 6.896-6.226v6.737l-3.545 3.2-3.352-3.711zm-.042-4.881c0-1.93 1.57-3.5 3.5-3.5h1.35l-4.85 4.378zM43.788 38.161a5.875 5.875 0 0 1-4.97-2.729 5.878 5.878 0 0 1 1.822-8.1l9.342-5.912c3.311-1.956 6.555-.548 8.067 1.842s1.397 5.923-1.75 8.054l-9.382 5.938a5.835 5.835 0 0 1-3.13.909zm-2.435-4.334a2.872 2.872 0 0 0 3.96.89l9.344-5.912c1.721-1.166 1.544-2.855.857-3.939-.687-1.085-2.137-1.97-3.968-.888l-9.303 5.888a2.875 2.875 0 0 0-.891 3.96z" fill="#000000" data-original="#000000" class=""></path><path fill="#f29764" d="m60.32 35.83-9.34 5.91c-2.04 1.29-4.74.69-6.03-1.35s-.69-4.74 1.35-6.03l1.45-.92 2.55-1.61 1.67-1.06 2.53-1.61h.01l1.14-.72c4.97-2.93 9.46 4.15 4.67 7.39z" data-original="#f29764" class=""></path><path fill="#e87136" d="M56.61 35.29c-.25.16-.53.23-.8.23-.5 0-.99-.25-1.27-.7l-2.57-4.05 2.53-1.61h.01v.01l2.56 4.05c.45.7.24 1.62-.46 2.07zM52.39 37.95c-.25.16-.52.24-.8.24-.5 0-.98-.25-1.27-.7l-2.57-4.05 2.55-1.61 2.56 4.05c.44.7.23 1.63-.47 2.07z" data-original="#e87136"></path><path d="M48.651 43.917a5.875 5.875 0 0 1-4.971-2.729 5.879 5.879 0 0 1 1.822-8.1l9.342-5.912c3.308-1.956 6.554-.549 8.066 1.842 1.513 2.39 1.397 5.923-1.75 8.053l-9.381 5.938a5.835 5.835 0 0 1-3.129.908zm-2.436-4.333a2.874 2.874 0 0 0 3.961.891l9.342-5.913c1.721-1.166 1.544-2.855.858-3.939-.687-1.084-2.137-1.968-3.968-.887l-9.303 5.888a2.875 2.875 0 0 0-.891 3.96z" fill="#000000" data-original="#000000" class=""></path></g></svg>