<?xml version="1.0" encoding="UTF-8" standalone="no"?>
<!-- Created with Inkscape (http://www.inkscape.org/) -->

<svg
   version="1.1"
   id="svg3942"
   xml:space="preserve"
   width="682.66669"
   height="682.66669"
   viewBox="0 0 682.66669 682.66669"
   xmlns="http://www.w3.org/2000/svg"
   xmlns:svg="http://www.w3.org/2000/svg"><defs
     id="defs3946"><clipPath
       clipPathUnits="userSpaceOnUse"
       id="clipPath3956"><path
         d="M 0,512 H 512 V 0 H 0 Z"
         id="path3954" /></clipPath></defs><g
     id="g3948"
     transform="matrix(1.3333333,0,0,-1.3333333,0,682.66667)"><g
       id="g3950"><g
         id="g3952"
         clip-path="url(#clipPath3956)"><g
           id="g3958"
           transform="translate(370.1582,320.6885)"><path
             d="m 0,0 c -21.053,0 -38.119,17.066 -38.119,38.119 0,21.052 17.066,38.119 38.119,38.119 21.052,0 38.119,-17.067 38.119,-38.119 C 38.119,17.066 21.052,0 0,0 m 0,101.948 c -35.251,0 -63.829,-28.577 -63.829,-63.829 0,-35.252 28.578,-63.829 63.829,-63.829 35.251,0 63.829,28.577 63.829,63.829 0,35.252 -28.578,63.829 -63.829,63.829"
             style="fill:#fed2a4;fill-opacity:1;fill-rule:nonzero;stroke:none"
             id="path3960" /></g><g
           id="g3962"
           transform="translate(370.1582,320.6885)"><path
             d="m 0,0 c -21.053,0 -38.119,17.066 -38.119,38.119 0,21.052 17.066,38.119 38.119,38.119 21.052,0 38.119,-17.067 38.119,-38.119 C 38.119,17.066 21.052,0 0,0 Z M 29.842,94.556 C 20.937,99.275 10.78,101.948 0,101.948 c -35.251,0 -63.829,-28.577 -63.829,-63.829 0,-35.252 28.578,-63.829 63.829,-63.829 35.251,0 63.829,28.577 63.829,63.829 0,11.741 -3.17,22.742 -8.702,32.193"
             style="fill:none;stroke:#000000;stroke-width:15;stroke-linecap:round;stroke-linejoin:round;stroke-miterlimit:10;stroke-dasharray:none;stroke-opacity:1"
             id="path3964" /></g><g
           id="g3966"
           transform="translate(116.0127,258.7378)"><path
             d="m 0,0 c -21.053,0 -38.119,17.066 -38.119,38.119 0,21.052 17.066,38.119 38.119,38.119 21.052,0 38.119,-17.067 38.119,-38.119 C 38.119,17.066 21.052,0 0,0 m 0,101.948 c -35.252,0 -63.829,-28.577 -63.829,-63.829 0,-35.252 28.577,-63.828 63.829,-63.828 35.251,0 63.829,28.576 63.829,63.828 0,35.252 -28.578,63.829 -63.829,63.829"
             style="fill:#fed2a4;fill-opacity:1;fill-rule:nonzero;stroke:none"
             id="path3968" /></g><g
           id="g3970"
           transform="translate(116.0127,258.7378)"><path
             d="m 0,0 c -21.053,0 -38.119,17.066 -38.119,38.119 0,21.052 17.066,38.119 38.119,38.119 21.052,0 38.119,-17.067 38.119,-38.119 C 38.119,17.066 21.052,0 0,0 Z m 0,101.948 c -35.252,0 -63.829,-28.577 -63.829,-63.829 0,-35.252 28.577,-63.828 63.829,-63.828 35.251,0 63.829,28.576 63.829,63.828 0,35.252 -28.578,63.829 -63.829,63.829 z"
             style="fill:none;stroke:#000000;stroke-width:15;stroke-linecap:round;stroke-linejoin:round;stroke-miterlimit:10;stroke-dasharray:none;stroke-opacity:1"
             id="path3972" /></g><g
           id="g3974"
           transform="translate(275.5693,323.4375)"><path
             d="m 0,0 c 31.331,-31.33 81.366,-32.554 114.158,-3.672 2.179,1.919 2.315,5.268 0.262,7.321 L 3.65,114.419 c -2.053,2.054 -5.402,1.917 -7.322,-0.261 C -32.554,81.366 -31.33,31.33 0,0"
             style="fill:#fb2b3a;fill-opacity:1;fill-rule:nonzero;stroke:none"
             id="path3976" /></g><g
           id="g3978"
           transform="translate(303.1211,312.4531)"><path
             d="m 0,0 c -29.791,29.791 -32.34,76.482 -7.69,109.192 l -16.212,16.212 c -2.053,2.053 -5.403,1.917 -7.322,-0.262 C -60.106,92.35 -58.882,42.314 -27.552,10.984 -15.512,-1.055 -0.708,-8.63 14.816,-11.778 9.556,-8.488 4.574,-4.575 0,0"
             style="fill:#e41f2d;fill-opacity:1;fill-rule:nonzero;stroke:none"
             id="path3980" /></g><g
           id="g3982"
           transform="translate(275.5693,323.4375)"><path
             d="m 0,0 c 31.331,-31.33 81.366,-32.554 114.158,-3.672 2.179,1.919 2.315,5.268 0.262,7.321 L 3.65,114.419 c -2.053,2.054 -5.402,1.917 -7.322,-0.261 C -32.554,81.366 -31.33,31.33 0,0 Z"
             style="fill:none;stroke:#000000;stroke-width:15;stroke-linecap:round;stroke-linejoin:round;stroke-miterlimit:10;stroke-dasharray:none;stroke-opacity:1"
             id="path3984" /></g><g
           id="g3986"
           transform="translate(297.5342,347.0137)"><path
             d="M 0,0 8.059,8.059"
             style="fill:none;stroke:#000000;stroke-width:15;stroke-linecap:round;stroke-linejoin:round;stroke-miterlimit:10;stroke-dasharray:none;stroke-opacity:1"
             id="path3988" /></g><g
           id="g3990"
           transform="translate(283.6528,382.8057)"><path
             d="M 0,0 H 11.396"
             style="fill:none;stroke:#000000;stroke-width:15;stroke-linecap:round;stroke-linejoin:round;stroke-miterlimit:10;stroke-dasharray:none;stroke-opacity:1"
             id="path3992" /></g><g
           id="g3994"
           transform="translate(332.6587,331.5205)"><path
             d="M 0,0 V 11.397"
             style="fill:none;stroke:#000000;stroke-width:15;stroke-linecap:round;stroke-linejoin:round;stroke-miterlimit:10;stroke-dasharray:none;stroke-opacity:1"
             id="path3996" /></g><g
           id="g3998"
           transform="translate(218.1221,400.5811)"><path
             d="m 0,0 c 27.806,27.806 29.025,72.131 3.658,101.385 -1.903,2.194 -5.271,2.314 -7.324,0.261 l -97.98,-97.98 c -2.053,-2.053 -1.933,-5.421 0.26,-7.324 C -72.131,-29.025 -27.806,-27.806 0,0"
             style="fill:#fd4755;fill-opacity:1;fill-rule:nonzero;stroke:none"
             id="path4000" /></g><g
           id="g4002"
           transform="translate(135.2651,419.6919)"><path
             d="M 0,0 C -0.641,0.555 -1.082,1.242 -1.367,1.978 L -18.79,-15.445 c -2.052,-2.053 -1.932,-5.421 0.261,-7.324 29.255,-25.367 73.58,-24.148 101.386,3.658 5.433,5.434 9.837,11.504 13.24,17.963 C 68.206,-24.195 27.463,-23.814 0,0"
             style="fill:#fb2b3a;fill-opacity:1;fill-rule:nonzero;stroke:none"
             id="path4004" /></g><g
           id="g4006"
           transform="translate(167,454.7715)"><path
             d="m 0,0 -50.524,-50.524 c -2.053,-2.054 -1.933,-5.422 0.26,-7.324 29.255,-25.367 73.58,-24.148 101.386,3.658 27.806,27.806 29.025,72.13 3.658,101.385 -1.903,2.194 -5.271,2.314 -7.324,0.261 L 25,25"
             style="fill:none;stroke:#000000;stroke-width:15;stroke-linecap:round;stroke-linejoin:round;stroke-miterlimit:10;stroke-dasharray:none;stroke-opacity:1"
             id="path4008" /></g><g
           id="g4010"
           transform="translate(197.0928,420.1724)"><path
             d="M 0,0 -7.188,7.188"
             style="fill:none;stroke:#000000;stroke-width:15;stroke-linecap:round;stroke-linejoin:round;stroke-miterlimit:10;stroke-dasharray:none;stroke-opacity:1"
             id="path4012" /></g><g
           id="g4014"
           transform="translate(165.168,407.791)"><path
             d="M 0,0 V 10.165"
             style="fill:none;stroke:#000000;stroke-width:15;stroke-linecap:round;stroke-linejoin:round;stroke-miterlimit:10;stroke-dasharray:none;stroke-opacity:1"
             id="path4016" /></g><g
           id="g4018"
           transform="translate(210.9121,451.502)"><path
             d="M 0,0 H -10.166"
             style="fill:none;stroke:#000000;stroke-width:15;stroke-linecap:round;stroke-linejoin:round;stroke-miterlimit:10;stroke-dasharray:none;stroke-opacity:1"
             id="path4020" /></g><g
           id="g4022"
           transform="translate(192.6069,244.73)"><path
             d="m 0,0 c -3.577,0 -7.066,-0.371 -10.436,-1.071 4.365,12.756 1.281,29.467 -9.312,43.404 -15.111,19.88 -39.759,26.574 -55.052,14.95 -13.406,-10.19 -15.171,-31.072 -5.224,-49.462 -16.815,-3.029 -29.789,-13.744 -31.736,-28.032 -2.594,-19.033 15.361,-37.197 40.104,-40.569 7.508,-1.024 14.773,-0.56 21.331,1.104 4.096,-24.097 25.061,-42.45 50.325,-42.45 28.201,0 51.063,22.862 51.063,51.063 C 51.063,-22.862 28.201,0 0,0"
             style="fill:#81d261;fill-opacity:1;fill-rule:nonzero;stroke:none"
             id="path4024" /></g><g
           id="g4026"
           transform="translate(192.6069,244.73)"><path
             d="m 0,0 c -3.577,0 -7.066,-0.371 -10.436,-1.071 4.365,12.756 1.281,29.467 -9.312,43.404 -15.111,19.88 -39.759,26.574 -55.052,14.95 -13.406,-10.19 -15.171,-31.072 -5.224,-49.462 -16.815,-3.029 -29.789,-13.744 -31.736,-28.032 -2.594,-19.033 15.361,-37.197 40.104,-40.569 7.508,-1.024 14.773,-0.56 21.331,1.104 4.096,-24.097 25.061,-42.45 50.325,-42.45 28.201,0 51.063,22.862 51.063,51.063 C 51.063,-22.862 28.201,0 0,0 Z"
             style="fill:none;stroke:#000000;stroke-width:15;stroke-linecap:round;stroke-linejoin:round;stroke-miterlimit:10;stroke-dasharray:none;stroke-opacity:1"
             id="path4028" /></g><g
           id="g4030"
           transform="translate(182.4697,175.2993)"><path
             d="m 0,0 c -4.737,8.205 -3.328,18.891 2.748,29.436 -25.491,3.106 -44.677,16.627 -44.677,32.838 0,11.915 10.373,22.371 25.988,28.312 -1.885,1.531 -3.725,3.169 -5.495,4.939 -21.603,21.603 -25.476,52.756 -8.65,69.581 16.825,16.826 47.978,12.953 69.581,-8.65 1.796,-1.797 3.459,-3.664 5.008,-5.58 5.941,15.622 16.398,25.999 28.316,25.999 16.188,0 29.695,-19.131 32.826,-44.567 10.526,6.046 21.186,7.44 29.375,2.712 16.027,-9.254 16.518,-38.41 1.095,-65.123 C 126.025,52.421 111.625,40.324 98.384,36.636 94.696,23.396 82.599,8.995 65.123,-1.095 38.41,-16.518 9.253,-16.027 0,0"
             style="fill:#017b4e;fill-opacity:1;fill-rule:nonzero;stroke:none"
             id="path4032" /></g><g
           id="g4034"
           transform="translate(214.9292,175.2993)"><path
             d="m 0,0 c -4.737,8.205 -3.328,18.891 2.748,29.436 -25.491,3.106 -44.677,16.627 -44.677,32.838 0,10.155 7.535,19.25 19.428,25.393 2.94,1.52 3.461,5.468 1.118,7.805 -0.017,0.018 -0.035,0.036 -0.053,0.053 -21.603,21.603 -25.476,52.756 -8.65,69.581 3.317,3.318 7.198,5.819 11.447,7.55 -16.327,5.52 -33.082,3.276 -43.907,-7.55 -16.826,-16.825 -12.953,-47.978 8.65,-69.581 1.771,-1.77 3.61,-3.408 5.495,-4.939 -15.614,-5.941 -25.988,-16.397 -25.988,-28.312 0,-16.211 19.186,-29.732 44.678,-32.838 C -35.787,18.891 -37.196,8.205 -32.459,0 -25.579,-11.918 -7.69,-15.237 12.013,-9.819 6.769,-7.777 2.599,-4.501 0,0"
             style="fill:#026841;fill-opacity:1;fill-rule:nonzero;stroke:none"
             id="path4036" /></g><g
           id="g4038"
           transform="translate(182.4697,175.2993)"><path
             d="m 0,0 c -4.737,8.205 -3.328,18.891 2.748,29.436 -25.491,3.106 -44.677,16.627 -44.677,32.838 0,11.915 10.373,22.371 25.988,28.312 -1.885,1.531 -3.725,3.169 -5.495,4.939 -21.603,21.603 -25.476,52.756 -8.65,69.581 16.825,16.826 47.978,12.953 69.581,-8.65 1.796,-1.797 3.459,-3.664 5.008,-5.58 5.941,15.622 16.398,25.999 28.316,25.999 16.188,0 29.695,-19.131 32.826,-44.567 10.526,6.046 21.186,7.44 29.375,2.712 16.027,-9.254 16.518,-38.41 1.095,-65.123 C 126.025,52.421 111.625,40.324 98.384,36.636 94.696,23.396 82.599,8.995 65.123,-1.095 38.41,-16.518 9.253,-16.027 0,0 Z"
             style="fill:none;stroke:#000000;stroke-width:15;stroke-linecap:round;stroke-linejoin:round;stroke-miterlimit:10;stroke-dasharray:none;stroke-opacity:1"
             id="path4040" /></g><g
           id="g4042"
           transform="translate(202.0303,290.7588)"><path
             d="M 0,0 98.542,-98.542"
             style="fill:none;stroke:#000000;stroke-width:15;stroke-linecap:round;stroke-linejoin:round;stroke-miterlimit:10;stroke-dasharray:none;stroke-opacity:1"
             id="path4044" /></g><g
           id="g4046"
           transform="translate(418.6978,181.6821)"><path
             d="m 0,0 c 4.737,8.205 3.328,18.891 -2.748,29.436 25.491,3.106 44.678,16.627 44.678,32.838 0,11.915 -10.374,22.371 -25.989,28.312 1.886,1.531 3.725,3.169 5.495,4.939 21.603,21.603 25.476,52.756 8.651,69.581 -16.826,16.826 -47.978,12.953 -69.582,-8.65 -1.796,-1.797 -3.458,-3.664 -5.008,-5.58 -5.941,15.622 -16.398,26 -28.316,26 -16.188,0 -29.695,-19.132 -32.826,-44.568 -10.525,6.046 -21.186,7.44 -29.375,2.712 -16.027,-9.253 -16.518,-38.41 -1.095,-65.123 10.09,-17.476 24.49,-29.573 37.731,-33.261 3.688,-13.24 15.785,-27.641 33.261,-37.731 C -38.41,-16.518 -9.253,-16.027 0,0"
             style="fill:#68ca44;fill-opacity:1;fill-rule:nonzero;stroke:none"
             id="path4048" /></g><g
           id="g4050"
           transform="translate(418.6978,181.6821)"><path
             d="m 0,0 c 4.737,8.205 3.328,18.891 -2.748,29.436 25.491,3.106 44.678,16.627 44.678,32.838 0,11.915 -10.374,22.371 -25.989,28.312 1.886,1.531 3.725,3.169 5.495,4.939 21.603,21.603 25.476,52.756 8.651,69.581 -16.826,16.826 -47.978,12.953 -69.582,-8.65 -1.796,-1.797 -3.458,-3.664 -5.008,-5.58 -5.941,15.622 -16.398,26 -28.316,26 -16.188,0 -29.695,-19.132 -32.826,-44.568 -10.525,6.046 -21.186,7.44 -29.375,2.712 -16.027,-9.253 -16.518,-38.41 -1.095,-65.123 10.09,-17.476 24.49,-29.573 37.731,-33.261 3.688,-13.24 15.785,-27.641 33.261,-37.731 C -38.41,-16.518 -9.253,-16.027 0,0 Z"
             style="fill:none;stroke:#000000;stroke-width:15;stroke-linecap:round;stroke-linejoin:round;stroke-miterlimit:10;stroke-dasharray:none;stroke-opacity:1"
             id="path4052" /></g><g
           id="g4054"
           transform="translate(399.1372,297.1416)"><path
             d="M 0,0 -98.542,-98.542"
             style="fill:none;stroke:#000000;stroke-width:15;stroke-linecap:round;stroke-linejoin:round;stroke-miterlimit:10;stroke-dasharray:none;stroke-opacity:1"
             id="path4056" /></g><g
           id="g4058"
           transform="translate(307.6128,175.3433)"><path
             d="m 0,0 c 31.112,-31.112 80.746,-32.415 113.409,-3.908 2.333,2.036 2.468,5.621 0.278,7.811 L 3.904,113.687 c -2.19,2.189 -5.776,2.055 -7.812,-0.279 C -32.415,80.745 -31.112,31.112 0,0"
             style="fill:#ffffff;fill-opacity:1;fill-rule:nonzero;stroke:none"
             id="path4060" /></g><g
           id="g4062"
           transform="translate(307.6128,175.3433)"><path
             d="m 0,0 c 31.112,-31.112 80.746,-32.415 113.409,-3.908 2.333,2.036 2.468,5.621 0.278,7.811 L 3.904,113.687 c -2.19,2.189 -5.776,2.055 -7.812,-0.279 C -32.415,80.745 -31.112,31.112 0,0 Z"
             style="fill:none;stroke:#000000;stroke-width:15;stroke-linecap:round;stroke-linejoin:round;stroke-miterlimit:10;stroke-dasharray:none;stroke-opacity:1"
             id="path4064" /></g><g
           id="g4066"
           transform="translate(335.3306,203.061)"><path
             d="M 0,0 C 17.164,-17.164 44.991,-17.164 62.155,0 L 0,62.155 C -17.164,44.991 -17.164,17.164 0,0"
             style="fill:#fddf30;fill-opacity:1;fill-rule:nonzero;stroke:none"
             id="path4068" /></g><g
           id="g4070"
           transform="translate(351.8452,203.0605)"><path
             d="m 0,0 c -14.303,14.304 -16.676,36.009 -7.14,52.78 l -9.375,9.375 C -33.678,44.992 -33.678,17.164 -16.515,0 -5.823,-10.692 9.007,-14.72 22.82,-12.091 14.459,-10.5 6.472,-6.471 0,0"
             style="fill:#fed402;fill-opacity:1;fill-rule:nonzero;stroke:none"
             id="path4072" /></g><g
           id="g4074"
           transform="translate(335.3306,203.061)"><path
             d="M 0,0 C 17.164,-17.164 44.991,-17.164 62.155,0 L 0,62.155 C -17.164,44.991 -17.164,17.164 0,0 Z"
             style="fill:none;stroke:#000000;stroke-width:15;stroke-linecap:round;stroke-linejoin:round;stroke-miterlimit:10;stroke-dasharray:none;stroke-opacity:1"
             id="path4076" /></g><g
           id="g4078"
           transform="translate(237.168,157.0337)"><path
             d="m 0,0 c -21.053,0 -38.119,17.066 -38.119,38.119 0,21.052 17.066,38.119 38.119,38.119 21.053,0 38.119,-17.067 38.119,-38.119 C 38.119,17.066 21.053,0 0,0 m 0,101.948 c -35.251,0 -63.829,-28.577 -63.829,-63.829 0,-35.252 28.578,-63.828 63.829,-63.828 35.251,0 63.829,28.576 63.829,63.828 0,35.252 -28.578,63.829 -63.829,63.829"
             style="fill:#fed2a4;fill-opacity:1;fill-rule:nonzero;stroke:none"
             id="path4080" /></g><g
           id="g4082"
           transform="translate(237.168,157.0337)"><path
             d="m 0,0 c -21.053,0 -38.119,17.066 -38.119,38.119 0,21.052 17.066,38.119 38.119,38.119 21.053,0 38.119,-17.067 38.119,-38.119 C 38.119,17.066 21.053,0 0,0 Z m 0,101.948 c -35.251,0 -63.829,-28.577 -63.829,-63.829 0,-35.252 28.578,-63.828 63.829,-63.828 35.251,0 63.829,28.576 63.829,63.828 0,35.252 -28.578,63.829 -63.829,63.829 z"
             style="fill:none;stroke:#000000;stroke-width:15;stroke-linecap:round;stroke-linejoin:round;stroke-miterlimit:10;stroke-dasharray:none;stroke-opacity:1"
             id="path4084" /></g><g
           id="g4086"
           transform="translate(181.1548,7.5)"><path
             d="m 0,0 h 142.051 c 1.937,0 3.863,0.36 5.654,1.1 69.96,28.885 120.059,96.106 124.115,175.488 0.291,5.684 -4.299,10.43 -9.991,10.43 h -381.607 c -5.691,0 -10.282,-4.746 -9.991,-10.43 C -125.712,97.206 -75.613,29.985 -5.653,1.1 -3.863,0.36 -1.937,0 0,0"
             style="fill:#d8ecfe;fill-opacity:1;fill-rule:nonzero;stroke:none"
             id="path4088" /></g><g
           id="g4090"
           transform="translate(89.3979,184.0884)"><path
             d="m 0,0 c -0.291,5.684 4.299,10.43 9.991,10.43 h -38.012 c -5.691,0 -10.282,-4.746 -9.991,-10.43 4.056,-79.382 54.156,-146.603 124.116,-175.489 1.79,-0.739 3.716,-1.099 5.653,-1.099 h 38.012 c -1.937,0 -3.863,0.36 -5.653,1.099 C 54.156,-146.603 4.057,-79.382 0,0"
             style="fill:#c4e2ff;fill-opacity:1;fill-rule:nonzero;stroke:none"
             id="path4092" /></g><g
           id="g4094"
           transform="translate(442.9839,194.5181)"><path
             d="m 0,0 h -381.607 c -5.691,0 -10.282,-4.746 -9.991,-10.43 0.64,-12.537 2.433,-24.771 5.267,-36.598 H 4.724 C 7.558,-35.201 9.351,-22.967 9.991,-10.43 10.282,-4.746 5.691,0 0,0"
             style="fill:#eaf6ff;fill-opacity:1;fill-rule:nonzero;stroke:none"
             id="path4096" /></g><g
           id="g4098"
           transform="translate(51.3857,184.0884)"><path
             d="M 0,0 C 0.641,-12.538 2.433,-24.771 5.268,-36.599 H 43.28 C 40.445,-24.771 38.653,-12.538 38.012,0 c -0.29,5.684 4.3,10.43 9.991,10.43 H 9.991 C 4.3,10.43 -0.291,5.684 0,0"
             style="fill:#d8ecfe;fill-opacity:1;fill-rule:nonzero;stroke:none"
             id="path4100" /></g><g
           id="g4102"
           transform="translate(371,147.4897)"><path
             d="M 0,0 H 76.708"
             style="fill:none;stroke:#000000;stroke-width:15;stroke-linecap:round;stroke-linejoin:round;stroke-miterlimit:10;stroke-dasharray:none;stroke-opacity:1"
             id="path4104" /></g><g
           id="g4106"
           transform="translate(56.6533,147.4897)"><path
             d="M 0,0 H 278.347"
             style="fill:none;stroke:#000000;stroke-width:15;stroke-linecap:round;stroke-linejoin:round;stroke-miterlimit:10;stroke-dasharray:none;stroke-opacity:1"
             id="path4108" /></g><g
           id="g4110"
           transform="translate(181.1548,7.5)"><path
             d="m 0,0 h 142.051 c 1.937,0 3.863,0.36 5.654,1.1 69.96,28.885 120.059,96.106 124.115,175.488 0.291,5.684 -4.299,10.43 -9.991,10.43 h -381.607 c -5.691,0 -10.282,-4.746 -9.991,-10.43 C -125.712,97.206 -75.613,29.985 -5.653,1.1 -3.863,0.36 -1.937,0 0,0 Z"
             style="fill:none;stroke:#000000;stroke-width:15;stroke-linecap:round;stroke-linejoin:round;stroke-miterlimit:10;stroke-dasharray:none;stroke-opacity:1"
             id="path4112" /></g><g
           id="g4114"
           transform="translate(378.4204,458.627)"><path
             d="m 0,0 c 2.42,0.649 4.001,2.991 3.671,5.475 -1.31,9.878 -5.755,19.419 -13.345,27.009 -7.591,7.59 -17.132,12.036 -27.01,13.346 -2.483,0.329 -4.825,-1.251 -5.474,-3.672 l -13.19,-49.224 c -0.996,-3.718 2.406,-7.12 6.123,-6.123 z"
             style="fill:#fd9a01;fill-opacity:1;fill-rule:nonzero;stroke:none"
             id="path4116" /></g><g
           id="g4118"
           transform="translate(344.9375,451.5605)"><path
             d="m 0,0 12.792,47.743 c -5.036,2.701 -10.461,4.419 -15.993,5.153 -2.484,0.33 -4.825,-1.251 -5.474,-3.671 L -21.865,0 c -0.996,-3.717 2.406,-7.119 6.123,-6.123 L -0.13,-1.94 C -0.21,-1.318 -0.178,-0.665 0,0"
             style="fill:#fb8801;fill-opacity:1;fill-rule:nonzero;stroke:none"
             id="path4120" /></g><g
           id="g4122"
           transform="translate(378.4204,458.627)"><path
             d="m 0,0 c 2.42,0.649 4.001,2.991 3.671,5.475 -1.31,9.878 -5.755,19.419 -13.345,27.009 -7.591,7.59 -17.132,12.036 -27.01,13.346 -2.483,0.329 -4.825,-1.251 -5.474,-3.672 l -13.19,-49.224 c -0.996,-3.718 2.406,-7.12 6.123,-6.123 z"
             style="fill:none;stroke:#000000;stroke-width:15;stroke-linecap:round;stroke-linejoin:round;stroke-miterlimit:10;stroke-dasharray:none;stroke-opacity:1"
             id="path4124" /></g></g></g></g></svg>
